<svg width="800" height="600" viewBox="0 0 800 600" xmlns="http://www.w3.org/2000/svg">
  <rect width="800" height="600" fill="#FAF9FB"/>

  <!-- tile swatch grid -->
  <g transform="translate(170,140)">
    <rect x="0" y="0" width="130" height="130" rx="14" fill="#6700C8"/>
    <rect x="150" y="0" width="130" height="130" rx="14" fill="#8E3EDA"/>
    <rect x="300" y="0" width="130" height="130" rx="14" fill="#C9A3F2"/>
    <rect x="0" y="150" width="130" height="130" rx="14" fill="#C9A3F2"/>
    <rect x="150" y="150" width="130" height="130" rx="14" fill="#6700C8"/>
    <rect x="300" y="150" width="130" height="130" rx="14" fill="#8E3EDA"/>
  </g>

  <!-- tile calculator badge -->
  <g transform="translate(590,375)">
    <rect x="-55" y="-72" width="110" height="144" rx="18" fill="#14121A"/>
    <rect x="-40" y="-56" width="80" height="32" rx="6" fill="#F3E6FF"/>
    <circle cx="-24" cy="-4" r="9" fill="#F3E6FF"/>
    <circle cx="0" cy="-4" r="9" fill="#F3E6FF"/>
    <circle cx="24" cy="-4" r="9" fill="#F3E6FF"/>
    <circle cx="-24" cy="22" r="9" fill="#F3E6FF"/>
    <circle cx="0" cy="22" r="9" fill="#F3E6FF"/>
    <circle cx="24" cy="22" r="9" fill="#F3E6FF"/>
    <circle cx="-24" cy="48" r="9" fill="#F3E6FF"/>
    <circle cx="0" cy="48" r="9" fill="#F3E6FF"/>
    <circle cx="24" cy="48" r="9" fill="#F3E6FF"/>
  </g>
</svg>
